<svg width="22" height="22" viewBox="0 0 22 22" fill="none" xmlns="http://www.w3.org/2000/svg">
<path d="M5.63432 18.7873C4.53306 17.686 3.78309 16.2829 3.47926 14.7554C3.17543 13.2279 3.33137 11.6446 3.92738 10.2057C4.52339 8.76687 5.53269 7.53704 6.82764 6.67178C8.1226 5.80652 9.64506 5.34469 11.2025 5.34469C12.7599 5.34469 14.2824 5.80652 15.5773 6.67178C16.8723 7.53704 17.8816 8.76687 18.4776 10.2057C19.0736 11.6446 19.2296 13.2279 18.9257 14.7554C18.6219 16.2829 17.8719 17.686 16.7707 18.7873L18.0078 20.0245C18.9029 19.1318 19.6127 18.071 20.0965 16.9031C20.5803 15.7352 20.8285 14.4833 20.8269 13.2192C20.8269 7.90384 16.5178 3.59473 11.2025 3.59473C5.88718 3.59473 1.57806 7.90384 1.57806 13.2192C1.57806 15.8772 2.65512 18.2833 4.39715 20.0245L5.63432 18.7873Z" fill="#159643"/>
<path d="M15.5335 17.5502C16.39 16.6936 16.9732 15.6023 17.2095 14.4142C17.4458 13.2262 17.3245 11.9948 16.8609 10.8757C16.3973 9.75657 15.6123 8.80007 14.6051 8.12711C13.5979 7.45416 12.4138 7.09497 11.2025 7.09497C9.9912 7.09497 8.8071 7.45416 7.79992 8.12711C6.79274 8.80007 6.00773 9.75657 5.54415 10.8757C5.08058 11.9948 4.95925 13.2262 5.19552 14.4142C5.43179 15.6023 6.01504 16.6936 6.87153 17.5502L8.10958 16.313C7.49775 15.7012 7.08109 14.9217 6.91228 14.073C6.74347 13.2244 6.8301 12.3448 7.16122 11.5454C7.49233 10.746 8.05305 10.0628 8.77247 9.58208C9.49189 9.10138 10.3377 8.8448 11.203 8.8448C12.0682 8.8448 12.914 9.10138 13.6334 9.58208C14.3529 10.0628 14.9136 10.746 15.2447 11.5454C15.5758 12.3448 15.6624 13.2244 15.4936 14.073C15.3248 14.9217 14.9082 15.7012 14.2963 16.313L15.5335 17.5502Z" fill="#159643"/>
<path d="M13.0583 15.075C13.4253 14.7079 13.6752 14.2402 13.7765 13.731C13.8777 13.2218 13.8257 12.6941 13.627 12.2145C13.4284 11.7349 13.0919 11.325 12.6603 11.0366C12.2286 10.7482 11.7212 10.5942 11.2021 10.5942C10.6829 10.5942 10.1755 10.7482 9.74382 11.0366C9.31217 11.325 8.97574 11.7349 8.77706 12.2145C8.57838 12.6941 8.52637 13.2218 8.62761 13.731C8.72886 14.2402 8.97881 14.7079 9.34585 15.075L10.5839 13.8378C10.4615 13.7154 10.3782 13.5595 10.3444 13.3898C10.3106 13.2201 10.3279 13.0441 10.3941 12.8843C10.4603 12.7244 10.5725 12.5877 10.7164 12.4915C10.8603 12.3954 11.0294 12.3441 11.2025 12.3441C11.3756 12.3441 11.5447 12.3954 11.6886 12.4915C11.8325 12.5877 11.9446 12.7244 12.0109 12.8843C12.0771 13.0441 12.0944 13.2201 12.0606 13.3898C12.0268 13.5595 11.9435 13.7154 11.8211 13.8378L13.0583 15.075Z" fill="#159643"/>
</svg>
